<svg xmlns="http://www.w3.org/2000/svg" viewBox="0 0 166.47 22.2"><defs><style>.cls-1{fill:#fff;fill-rule:evenodd;}</style></defs><g id="图层_2" data-name="图层 2"><g id="图层_1-2" data-name="图层 1"><polygon class="cls-1" points="50.73 0 54 5.66 57.26 0 50.73 0"/><path class="cls-1" d="M30.17,5.88a11.84,11.84,0,0,1,0,16.32,8.16,8.16,0,0,0,0-16.32m45.18.32H68.82l3.27,5.66ZM.56,0V2.13l7.82,2.1L0,22.2H2.61L13,0ZM14.92,0,4.57,22.2H21.35V19.59l-8-2.15L21.46,0Zm26,22.2h7.18V0H40.94Zm26.12-16H59.88l9.24,16h7.17Zm-6.89,16h7.18L63.76,16Zm-9.43,0h6.52V6.2H50.74ZM30.17,5.88a8.16,8.16,0,0,0,0,16.32,11.82,11.82,0,0,1,0-16.32"/><path class="cls-1" d="M163.62,15h2.85V12.7h-6.78v-7H156.9v7h-6.84V15h4c-.36,1-.73,2.08-1.09,3.11-.16.43-.31.86-.46,1.3a1.05,1.05,0,0,1-1,.51h-1.45q.19,1.14.42,2.28h2.59a1.83,1.83,0,0,0,1.75-1.3c.75-2,1.48-3.93,2.23-5.9h2.79v5.54a1.48,1.48,0,0,0,1.66,1.66h5V19.89h-3.42a.37.37,0,0,1-.41-.41V15Zm-31.33-2.64a.56.56,0,0,1-.61-.41c-.14-.38-.28-.77-.42-1.14h-2.79c.22.76.44,1.52.67,2.28.2,1,.78,1.55,1.65,1.55H133V12.33h-.68Zm-9.88-5h-6.58V5.81H113v1.5H106.3V9.59h16.11Zm19.83,12.17c-.65-1.19-1.31-2.38-2-3.57,1.24-2.27,2.49-4.53,3.73-6.79V6H133.44V8.29h7.66l-2.48,4.45c-.6-1-1.18-2.1-1.77-3.15h-3.37l3.37,6.26-1.91,3.53a.9.9,0,0,1-.93.51h-1.77c.13.74.25,1.48.37,2.23v.05h3.1a2,2,0,0,0,1.92-1.35l.94-1.76c.32.61.65,1.21,1,1.81a2.64,2.64,0,0,0,2.38,1.3h2.64V19.89h-1.5a1,1,0,0,1-.83-.41M130.54,9.9H133V7.62H132a.65.65,0,0,1-.63-.41q-.16-.67-.36-1.35h-2.79l.57,2.48q.39,1.56,1.71,1.56m-9.48.72h-2.8l-2.17,9.27h-3.21l-2.28-9.27h-2.8l2.28,9.27h-3.93v2.28h16.41V19.89h-3.67Zm12.06,5h-2.79c-.28,1.25-.55,2.52-.82,3.78a.56.56,0,0,1-.63.51h-.78l.42,2.28h1.65a1.65,1.65,0,0,0,1.72-1.24l.72-2.95c.18-.8.34-1.59.51-2.38M93.93,17.46h4.61a1.48,1.48,0,0,0,1.66-1.66V9.17H93.72V8.29h6.16V6.53H93.72V5.71H90.93V9.17H84.76v8.29h6.37V18.6H84.2v2.27h6.93v1.3h2.8v-1.3h6.78V18.6H93.93ZM87.61,11.3h9.78v1.14H87.61Zm0,4v-1h9.78v.57c0,.31-.15.46-.41.46Zm75.44-3.83a2.2,2.2,0,0,0,.57-.05,2.13,2.13,0,0,0,1.25-1.19c.48-1.19,1-2.38,1.45-3.57h-2.85l-.83,2.07a1.13,1.13,0,0,1-1,.47h-.67c.14.76.28,1.52.41,2.27Zm-10,0h2.48V9.23h-.82a.59.59,0,0,1-.62-.37c-.3-.76-.59-1.51-.88-2.27h-2.69c.35,1.13.72,2.27,1.08,3.41.26.88.72,1.4,1.45,1.5"/></g></g></svg>